PathFileType	4	(X/Y/Z)	T1_P2_NoVision_NoMovement_0_0-723.trc
DataRate	CameraRate	NumFrames	NumMarkers	Units	OrigDataRate	OrigDataStartFrame	OrigNumFrames
60	60	4	27	m	60	632	723
Frame#	Time	RHip			RKnee			RAnkle			RBigToe			RSmallToe			RHeel			LHip			LKnee			LAnkle			LBigToe			LSmallToe			LHeel			Neck			Head			Nose			RShoulder			RElbow			RWrist			RThumb			RIndex			RPinky			LShoulder			LElbow			LWrist			LThumb			LIndex			LPinky		
		X1	Y1	Z1	X2	Y2	Z2	X3	Y3	Z3	X4	Y4	Z4	X5	Y5	Z5	X6	Y6	Z6	X7	Y7	Z7	X8	Y8	Z8	X9	Y9	Z9	X10	Y10	Z10	X11	Y11	Z11	X12	Y12	Z12	X13	Y13	Z13	X14	Y14	Z14	X15	Y15	Z15	X16	Y16	Z16	X17	Y17	Z17	X18	Y18	Z18	X19	Y19	Z19	X20	Y20	Z20	X21	Y21	Z21	X22	Y22	Z22	X23	Y23	Z23	X24	Y24	Z24	X25	Y25	Z25	X26	Y26	Z26	X27	Y27	Z27
633	10.55	452.42820798905717	3618.49946955408	538.8732813559085	834.5772049328186	3668.2998822752543	525.5957331824068	1251.9173548911062	3771.0594013573295	622.7875452078858	1325.8286586174622	3625.3077166827275	569.2713295436909	1317.1522364567	3678.0959826741214	520.788170658561	1289.2745098657413	3755.667264386713	627.9154198954611	451.83921089179796	3498.5514060650235	730.2458166583498	842.4400941183466	3580.4605471924324	755.5398627772527	1228.9361727757735	3608.990831571205	730.8594249300702	1310.3508799913348	3494.050093729884	670.1644845326529	1277.6488653893102	3455.587342387969	715.8152749035871	1266.011989234907	3622.358200187187	720.4056631259905	-103.5834728563885	3538.194462611299	635.9402971451335	-365.74279273439777	3460.942749936617	606.5003570119748	-219.6209892939688	3384.2718055363543	549.4893747609252	-31.08153371302692	3668.957366869753	529.810256329493	193.72703458010025	3682.9830165739068	425.3580142769407	399.78054027729564	3550.750169073198	420.22764967959	506.5570237794922	3484.5870794368248	496.83110132365283	511.39782973513826	3481.065376463387	489.01639896472403	532.9257397297023	3507.610436355099	446.9036819581199	-28.69272062278616	3508.368602218931	814.3944466394244	210.82120056535808	3407.8863383326843	837.9469384320049	393.7475411709186	3367.0807185257754	691.2622618950375	463.6273645125787	3408.6152499416057	585.8912178510635	499.5230908254025	3415.9845103450425	602.7125809749997	517.9296280844158	3368.751177674846	663.8159526009166
634	10.566666666666666	448.6379076236042	3623.3111738738025	541.2397987228368	835.5119747901653	3668.386042221748	526.0480222837933	1251.7771469444117	3771.391266497058	622.8715303961777	1325.7777042297034	3625.8144596876377	569.465590446542	1316.7979512600655	3677.73968575823	521.0598388157011	1289.0985462592207	3755.6761076482835	627.8374138932393	456.70114369369054	3499.751182082562	731.1186073906426	854.1854632707245	3573.7822911803987	754.5158892896936	1237.0275346281026	3605.5390401135473	729.4760976606885	1315.6475486153192	3518.8376419668366	678.0898041905372	1270.669187222722	3441.6955463954964	702.9677551559744	1266.2588012857216	3622.035228601528	719.8957444459501	-108.00971625753364	3536.799432562904	635.3624532376613	-360.8367547025674	3457.173692283614	604.4346410591924	-219.74645256902735	3384.060135617663	549.3965962724675	-31.163770996722253	3669.044891605067	529.8298773843777	198.29385133184334	3684.527205987015	425.97048074975163	399.69085382151485	3550.970365275751	420.2455268442926	504.95360141778264	3495.3744674109266	507.4300534045508	514.7809950664761	3477.1851962714695	486.9690961217186	528.1017241142747	3505.7906427329845	446.4864241286296	-24.44503693529746	3504.4870137864496	812.1208114557852	210.68466368558435	3407.9627258544356	838.0712921831895	393.7234107894913	3366.9212535919883	691.2298449393553	463.4852324359838	3408.5598453492244	585.9924298449707	494.40902024517266	3412.271766316708	601.5379530155475	514.5539048387003	3354.5716345109045	650.4968691259346
635	10.583333333333334	457.14779294906236	3620.093869451556	539.7244398459493	835.0644602296868	3667.175798905971	525.8920767936229	1251.9017385899665	3771.564688692896	622.9147978905115	1325.864590569745	3625.8711067831414	569.4272421918712	1310.4875243467934	3674.055581963691	520.6023515053516	1296.910436955311	3777.892973835968	633.3576259824465	460.97709639436954	3495.5092939548945	728.7241920958977	857.4470111871957	3569.664918317812	752.9405692005347	1231.7643399636218	3604.132336784741	728.0753420348731	1317.7589440529157	3513.652757350571	675.5323576256501	1270.5989739789254	3441.512045189902	702.9429212241591	1266.5751150017825	3622.0197721947525	719.7747671242263	-108.00436484827844	3534.695283407639	639.726041064178	-360.8745382835254	3457.3033166173996	604.4370024118576	-219.64410365585027	3384.356989735583	549.4835742958473	-31.42994401868609	3647.224135649849	524.8972288341497	198.14797868779948	3684.614003930437	425.9035652093535	399.712047169988	3550.9550892857496	420.21031123657616	504.8601790067092	3495.5703457102522	507.4913021629929	514.787541641179	3477.316720165923	486.99412138698983	528.185145912882	3505.952191784987	446.51597354907454	-28.744712778796934	3508.3025994339614	814.3001144064104	215.83768907755982	3411.790306445626	840.0368089280889	393.72752076670184	3367.0313428056384	691.2476292848955	463.30192982891236	3408.59022842803	585.9469951532668	497.12505279257385	3430.157364352442	606.5685784235767	518.0327588183184	3371.9208128945106	660.3195623951174
636	10.6	457.3018162679061	3620.44379495793	539.8689517000417	839.3479378071929	3662.6204351591546	523.7700292344666	1247.030846679677	3747.9537034192535	606.2555732598146	1331.702323327378	3627.165985825839	576.0846500993584	1315.882520331049	3675.3345646652424	521.7193554505767	1289.2824784690754	3755.173928077459	627.293788894994	457.2573164954979	3500.3122163933176	731.4489797382653	857.5151587767607	3570.0131993245427	752.6988913492974	1222.4552810032658	3605.0523849952147	730.0203658903648	1308.0813787912386	3498.4042059769918	672.5326683465486	1277.5230314987496	3455.6451002283625	715.946304971534	1263.807702522283	3627.0794832497218	722.9809314023884	-108.07852482921436	3536.763667194509	635.3914938435771	-360.81613814790836	3457.2558955759428	604.3411757709347	-219.339358059388	3386.8580170291966	550.6558672218993	-26.39081772442624	3670.0946287668226	530.2704931141767	198.14074172132914	3686.121791518512	421.44785710056914	399.6626912234894	3550.9598038585787	420.12793397570823	496.67547789833344	3480.0008906922785	494.91096229051044	510.99029664642944	3481.572602243714	488.9764566005252	524.3689044461702	3509.5459039772613	448.0474920053867	-28.717415984528746	3508.28394799639	814.2322988931473	215.72417330278054	3412.015541215093	840.1805302133075	393.7095703922118	3367.164487980591	691.3130308304676	463.36925857744575	3408.867846342171	586.2292236999705	497.2591507448226	3430.247418029016	606.7653340956149	517.53066356096	3369.481651357413	664.1114953628319
